<svg width="24" height="26" viewBox="0 0 24 26" fill="none" xmlns="http://www.w3.org/2000/svg">
<path d="M6.41645 6.74024V6.06814C6.41645 2.72884 8.90299 0 12 0C15.097 0 17.5836 2.72884 17.5836 6.06814V6.74217H21.3953C21.6258 6.7424 21.848 6.83117 22.0189 6.99128C22.1898 7.15138 22.2972 7.37143 22.3203 7.60877L23.9953 24.9408C24.0083 25.0746 23.9941 25.2098 23.9535 25.3376C23.913 25.4653 23.847 25.5829 23.7599 25.6827C23.6727 25.7825 23.5663 25.8623 23.4476 25.9169C23.3288 25.9716 23.2003 25.9999 23.0703 26H0.929674C0.799696 25.9999 0.671186 25.9716 0.552424 25.9169C0.433663 25.8623 0.327283 25.7825 0.240139 25.6827C0.152994 25.5829 0.0870185 25.4653 0.0464618 25.3376C0.00590514 25.2098 -0.0083331 25.0746 0.00466476 24.9408L1.67973 7.60877C1.70278 7.37143 1.81016 7.15138 1.98106 6.99128C2.15195 6.83117 2.3742 6.7424 2.60474 6.74217H6.41645V6.74024ZM8.27763 6.74024H15.7224V6.06814C15.7224 3.76876 14.0436 1.92578 12 1.92578C9.95642 1.92578 8.27763 3.76876 8.27763 6.06814V6.74217V6.74024ZM6.41645 8.66603H3.44786L1.95891 24.0723H22.0411L20.5503 8.66603H17.5836V11.5547C17.5836 11.8101 17.4855 12.055 17.311 12.2356C17.1365 12.4161 16.8998 12.5176 16.653 12.5176C16.4062 12.5176 16.1695 12.4161 15.9949 12.2356C15.8204 12.055 15.7224 11.8101 15.7224 11.5547V8.66603H8.27763V11.5547C8.27763 11.8101 8.17959 12.055 8.00507 12.2356C7.83055 12.4161 7.59385 12.5176 7.34704 12.5176C7.10023 12.5176 6.86353 12.4161 6.68901 12.2356C6.51449 12.055 6.41645 11.8101 6.41645 11.5547V8.66603Z" fill="white"/>
</svg>
