<svg width="279" height="186" viewBox="0 0 279 186" fill="none" xmlns="http://www.w3.org/2000/svg">
<path d="M132.118 124.214C138.613 125.9 141.73 132.263 149.724 134.446C157.709 136.536 159.604 134.561 168.383 137.71C169.655 138.156 170.945 138.547 172.233 138.894C179.869 140.958 187.261 141.365 190.556 142.913C194.432 144.713 195.424 141.767 201.066 143.419C206.732 145.04 210.336 145.127 215.528 144.728C218.58 144.493 225.247 144.647 231.381 144.84C235.687 144.991 239.74 145.142 242.139 145.564C248.01 146.667 254.653 143.504 258.118 141.465C259.232 140.856 260.022 140.209 260.559 139.646C260.789 139.405 260.805 139.159 260.704 138.99C260.704 138.99 260.704 138.99 260.704 138.99C260.576 138.779 260.271 138.683 259.919 138.843C258.224 139.63 255.422 140.281 252.073 140.032C245.897 139.38 245.41 141.269 236.994 140.455C235.061 140.232 233.308 139.926 231.636 139.601C226.086 138.5 221.467 137.307 213.805 137.22C203.781 136.972 202.303 132.176 188.155 131.941C181.719 131.761 178.115 130.475 174.936 128.812C171.089 126.776 167.824 124.211 160.801 121.522C147.977 116.7 131.004 112.064 123.687 107.971C122.786 107.48 121.853 106.961 120.895 106.416C114.022 102.516 105.734 97.3038 97.1684 91.7507C92.5245 88.7472 87.8713 84.7253 83.4431 80.3171C78.4362 75.3561 73.6828 70.1193 69.0823 65.267C64.7378 60.7339 59.9989 54.7682 56.0723 48.7389C51.899 42.3426 48.0793 36.4648 45.5711 32.7646C40.6532 25.5056 39.482 23.7359 36.1576 16.0039C34.2571 11.5667 30.9682 5.81499 27.3803 1.32608C25.5898 -0.932285 25.0611 -0.00181754 25.9496 2.7645C27.2356 6.75911 29.1568 9.64461 29.1491 12.0427C29.1527 16.861 29.2515 18.8912 32.8613 23.105C36.4854 27.3353 35.1124 30.9202 36.8802 33.5692C38.6619 36.217 40.094 35.3863 46.5308 50.1584C46.9791 51.1862 47.4204 52.1891 47.8579 53.174C53.8591 66.4529 59.2709 73.195 62.8613 77.8701C65.222 80.8968 69.8822 85.1922 74.8567 89.4557C78.2137 92.3584 81.7693 95.2493 84.8688 97.9614C91.6372 104.158 106.532 113.129 114.836 117.913C115.904 118.553 116.86 119.139 117.668 119.664C124.726 124.179 125.612 122.448 132.118 124.214Z" fill="#8F682E"/>
<path d="M248.755 130.927C245.647 129.795 244.754 126.226 241.119 124.577C237.492 122.935 236.294 123.869 232.512 121.359C228.73 118.851 224.322 117.455 222.857 115.959C221.386 114.46 220.355 115.88 218.047 114.12C215.768 112.377 214.143 111.71 211.694 110.961C210.57 110.617 208.517 109.719 206.404 108.639C203.931 107.361 201.419 105.844 200.31 104.745C198.271 102.73 194.95 102.107 193.15 101.35C192.59 101.118 192.116 100.985 191.74 100.917C191.581 100.889 191.462 100.952 191.408 101.049C191.408 101.049 191.408 101.049 191.408 101.049C191.34 101.17 191.37 101.342 191.529 101.454C192.311 101.992 193.395 102.924 194.571 104.231C196.769 106.662 197.599 105.955 201 108.525C202.426 109.599 203.557 110.591 204.727 111.526C204.73 111.527 204.736 111.531 204.738 111.532C206.387 112.833 208.096 114.017 210.79 115.141C215.427 117.074 215.119 119.896 221.979 122.094C228.806 124.273 228.128 127.011 234.02 130.781C239.915 134.547 248.287 137.663 251.725 139.976C252.888 140.75 254.144 141.622 255.449 142.578C256.111 143.064 256.739 143.538 257.361 144.045C257.649 144.281 257.94 144.53 258.177 144.755C258.382 144.934 258.606 145.242 258.43 144.988L261.224 139.445C259.265 139.642 257.265 139.976 255.271 140.457C249.224 141.894 241.62 143.135 235.476 146.225C229.318 149.202 221.212 154.375 217.852 157.241C214.462 160.072 213.691 160.767 210.168 163.097C208.154 164.451 205.733 166.822 204.277 169.314C203.55 170.569 204.131 170.667 205.273 169.842C206.949 168.645 208.036 167.363 209.226 167.137C211.604 166.705 212.526 166.545 214.16 164.406C215.829 162.27 217.786 162.921 218.927 161.941C220.106 161.013 219.478 159.992 226.634 156.947C233.831 154.054 237.861 152.852 240.647 152.004C243.41 151.169 248.987 148.543 253.686 147.87C255.797 147.551 258.894 146.992 261.945 146.718C264.918 146.592 266.084 143.877 264.705 141.241C263.414 139.335 262.615 138.951 261.74 138.189C260.877 137.506 260.096 136.941 259.324 136.388C257.819 135.311 256.538 134.418 255.654 133.708C252.426 131.141 251.867 132.074 248.755 130.927Z" fill="#8F682E"/>
</svg>
