<svg width="373" height="78" viewBox="0 0 373 78" fill="none" xmlns="http://www.w3.org/2000/svg">
<path d="M8.35062 46.5994C10.2799 45.9789 12.4258 45.3727 14.643 44.7925C18.4168 43.7987 22.4601 42.9135 25.7804 42.2741C27.4461 41.9534 26.6227 42.292 27.7863 42.0792C30.0242 41.6746 32.0737 41.1875 34.3044 40.8346C35.0303 40.7215 34.1775 41.1408 34.9415 41.0161C39.1732 40.325 43.1213 39.5604 47.3837 38.8915C66.5944 35.9041 85.4664 33.3698 104.9 30.871C106.695 30.6416 108.53 30.4084 110.404 30.1719C117.419 29.2857 125.987 28.4142 133.229 27.3965C134.076 27.2771 133.542 27.1219 133.701 27.0834C136.203 26.4856 135.441 27.032 137.078 26.8852C143.667 26.29 150.926 25.4065 157.25 24.5397C159.915 24.1736 157.181 24.0683 159.906 23.9807C160.095 23.9742 159.444 24.291 160.182 24.2253C161.855 24.0758 165.034 23.643 166.317 23.5046C168.81 23.2364 169.226 23.1832 171.592 22.8968C174.797 22.5112 178.672 22.1573 182.11 21.6869C182.846 21.5855 181.84 21.465 183.013 21.2816C184.187 21.098 187.312 20.7406 188.366 20.6705C189.423 20.6 188.999 20.8418 189.19 20.8624C190.762 21.0411 194.316 20.1024 194.775 20.0347C203.21 18.8045 210.501 18.2238 218.445 17.2773C224.466 16.5594 230.914 15.699 236.651 15.0339C243.501 14.2407 249.29 13.6899 255.944 12.8849C256.644 12.8004 255.79 12.6159 256.645 12.5122C265.739 11.4101 274.777 10.3822 283.856 9.51223C284.763 9.42566 283.626 9.80879 284.533 9.73716C290.145 9.28612 298.894 8.7573 302.141 7.28835C305.869 6.89497 310.478 6.39968 313.872 6.22152C316.042 6.10859 313.927 6.62898 316.633 6.19555C317.239 6.09858 316.421 5.95582 317.329 5.82855C318.349 5.68558 319.378 5.55331 320.398 5.42677C323.351 5.06148 326.287 4.73358 328.996 4.32457C329.73 4.21253 329.514 4.02414 329.728 3.96041C331.584 3.43011 334.585 3.59311 335.293 3.54758C340.35 3.23475 344.021 2.69346 348.696 2.1755C349.747 2.06002 348.461 1.91608 349.493 1.7928C352.186 1.48452 354.981 1.13555 357.854 0.988147C358.056 0.983047 358.159 0.97649 358.477 0.986631C358.544 0.989581 358.609 0.993849 358.68 1.00131C358.715 1.00507 358.752 1.00967 358.792 1.01586C358.804 1.02362 358.928 1.01374 359.237 1.14501C359.386 1.22167 359.654 1.33304 359.898 1.76411C360.162 2.20307 360.042 2.87465 359.863 3.11914C359.755 3.28912 359.76 3.26615 359.716 3.32151C359.682 3.36125 359.649 3.39435 359.619 3.42306C359.559 3.48036 359.507 3.5207 359.461 3.55373C359.28 3.67944 359.178 3.7183 359.073 3.76404C358.582 3.95263 358.233 4.02376 357.903 4.1084C357.511 4.20365 357.212 4.26941 356.866 4.3446C356.693 4.38208 356.51 4.42128 356.319 4.46139C356.167 4.49292 356.008 4.52532 355.844 4.55861C354.43 4.84588 353.148 5.08165 351.832 5.31559C350.604 5.53352 351.686 5.06793 351.089 5.16117C348.668 5.53039 348.192 6.09075 345.79 6.46029C345.303 6.53461 345.535 6.27736 345.442 6.27216C343.979 6.19251 342.783 6.94223 342.454 7.01746C337.868 8.06278 334.776 8.11693 330.36 9.04472C329.821 9.15833 331.094 9.18105 329.57 9.48574C326.395 10.1214 323.181 10.7498 319.837 11.3901C312.885 12.7209 305.786 14.0195 299.043 15.1874C297.488 15.4574 298.554 15.0481 298.449 15.0438C296.825 14.9722 295.9 15.6727 295.402 15.7895C291.418 16.7074 287.679 17.0022 285.108 18.1246C268.302 21.1978 251.677 24.8192 234.963 27.576C234.75 27.6117 235.08 27.29 234.656 27.3624C229.545 28.2317 230.607 28.4195 227.338 29.5556C226.513 29.8416 223.829 29.7869 223.593 29.7907C222.734 29.8026 223.521 29.2649 223.237 29.2905C220.893 29.515 221.509 30.6533 218.407 31.2711C218.309 31.2884 218.672 30.9841 218.408 31.0137C217.586 31.1049 216.802 31.3532 215.995 31.434C214.149 31.6169 213.387 31.1559 210.69 32.0506C210.349 32.165 211.02 32.7462 208.245 33.2665C207.139 33.4731 202.258 34.4611 200.879 34.6911C199.503 34.9202 200.397 34.5106 200.297 34.5205C196.557 34.9647 197.937 34.5621 195.998 34.4994C194.061 34.438 194.781 35.3661 194.052 35.6322C193.319 35.8984 190.577 36.1976 189.899 36.2464C189.215 36.2962 190.018 35.9884 189.416 36.0598C185.432 36.5374 187.798 36.9176 186.541 37.3406C183.592 38.337 181.056 38.0527 178.266 38.5378C177.512 38.669 178.159 38.7196 177.495 38.8706C174.871 39.4653 173.19 39.5568 170.239 40.3824C169.769 40.5146 167.391 41.475 165.749 41.4574C165.516 41.4541 166.112 41.1349 164.975 41.3213C163.295 41.5958 160.211 42.18 158.418 42.6117C157.094 42.9308 158.685 42.9332 156.99 43.1774C156.239 43.2854 157.577 42.8211 156.169 43.0392C154.733 43.2629 151.151 44.004 149.814 44.2849C148.442 44.5727 149.242 44.6567 149.135 44.6955C148.476 44.926 145.885 45.5776 145.66 45.6239C135.371 47.7665 125.567 49.4746 115.697 51.5959C114.421 51.87 113.171 52.1452 111.945 52.4232C111.077 52.6196 111.71 52.7459 111.578 52.7784C108.559 53.5363 110.809 52.3563 108.627 52.5927C109.035 53.0368 107.795 53.2066 105.662 53.7283C104.619 53.9835 105.234 54.0559 105.142 54.0969C103.66 54.7321 102.55 54.5716 102.266 54.5512C101.17 54.4872 100.129 55.0764 99.4097 55.0321C98.6916 54.9893 100.177 54.3606 98.1751 54.8084C97.6496 55.1158 99.2695 55.2538 97.7196 55.6792C91.8807 57.2698 80.9039 59.4331 76.229 60.6458C71.624 61.8239 70.0595 62.3274 67.4354 63.1298C65.0187 63.8988 64.3466 64.3359 63.9274 64.6496C63.6872 64.83 63.5729 64.9557 63.318 65.1849C63.2111 65.2879 63.0702 65.4193 62.9463 65.5625C62.8133 65.7063 62.699 65.9084 62.7207 65.9521C62.7178 65.9278 62.8185 66.1912 62.9622 66.4031C63.631 67.3428 62.6497 67.1842 62.775 67.5391C62.975 67.9922 63.4901 68.1508 63.8918 68.5477C64.3079 68.9447 63.1982 68.3866 64.3111 69.1396C65.4192 69.9423 68.9123 70.9421 69.4077 70.8633C70.4672 70.7569 69.0743 69.899 72.2864 71.0079C72.4708 71.0685 71.8002 71.1255 72.5118 71.3461C75.6515 72.3012 78.952 72.9747 82.2744 73.5148C84.9959 73.9578 87.7372 74.2918 90.4329 74.5518C91.2655 74.6311 90.5081 74.8399 90.9832 74.8875C95.9932 75.3327 94.2126 74.7844 96.9743 74.3831C96.3446 75.0092 97.8429 75.4754 101.663 75.4659C103.949 75.4507 103.58 75.1676 105.032 74.9419C105.472 74.8742 107.103 75.0252 107.386 74.8823C108.339 74.4137 106.809 73.9931 110.732 74.0316C110.903 74.0335 110.369 74.2945 110.957 74.2837C114.804 74.1999 115.217 73.7212 119.357 73.3989C122.594 73.1464 128.395 72.9585 132.085 72.6601C132.093 73.3918 135.543 72.9029 136.916 72.261C139.304 72.0471 141.889 71.7513 144.214 71.5713C145.004 71.5101 144.509 71.7752 144.611 71.7872C146.171 71.9782 147.209 71.372 147.7 71.2984C150.409 70.906 152.885 70.6628 155.379 70.3928C157.903 70.1202 160.454 69.817 163.159 69.2948C163.343 69.2588 163.618 68.7157 165.062 68.9066C165.157 68.9202 163.438 69.3679 165.93 69.0727C168.46 68.7732 173.226 68.4329 176.658 67.7427C177.508 67.5738 179.566 66.8872 181.32 66.9753C181.555 66.9879 181.324 67.1651 181.665 67.2008C182.765 67.3124 183.295 66.7256 184.585 66.9892C185.876 67.2524 188.549 67.2179 192 66.4395C192.11 66.4155 192.892 65.8989 194.003 65.7513C195.738 65.5216 198.28 65.2519 200.109 64.9921C200.983 64.8678 200.388 64.6974 200.54 64.6716C206.467 63.6946 210.66 63.3222 217.035 62.4995C218.178 62.3529 221.51 61.5231 223.771 61.4667C226.277 61.4003 223.925 62.9931 229.559 61.8694C231.821 61.418 234.501 59.4405 238.729 59.6335C246.673 58.2513 254.107 57.5559 262.059 56.0639C262.416 55.9971 263.488 55.393 264.337 55.2706C265.599 55.0893 266.315 55.1874 267.21 55.0653C270.97 54.5575 274.375 53.8628 278.005 53.3368C279.387 53.1361 278.933 53.4189 280.57 53.181C282.207 52.9429 283.256 52.5013 285.503 52.2934C287.19 52.1389 288.947 52.4451 291.187 52.1687C291.188 51.6012 292.718 51.3783 295.407 50.8158C295.924 50.7073 295.335 50.6003 295.578 50.539C296.567 50.2853 297.523 50.3022 298.463 50.0469C298.692 49.9851 298.674 49.7942 298.859 49.733C300.426 49.2068 303.147 49.224 303.616 49.2276C305.412 49.2394 306.194 48.8669 307.549 48.7717C308.904 48.6763 306.924 49.1232 308.498 48.9496C311.766 48.5884 315.922 47.9158 319.225 47.4146C320.542 47.2135 319.604 47.0997 319.792 47.065C322.494 46.5821 325.287 46.4254 326.719 45.6888C328.802 46.6989 328.334 45.3099 332.262 44.969C332.571 44.9427 333.056 45.4977 331.894 45.77C330.732 46.0421 328.921 46.1253 327.315 46.5178C326.938 46.61 324.809 47.5295 324.514 47.6109C322.191 48.2493 321.716 47.3812 321.583 47.3501C320.086 47.0233 317.473 48.063 316.769 48.2156C313.548 48.9142 310.755 49.2125 308.057 49.772C306.293 50.1367 306.213 50.7656 304.808 50.9631C300.147 51.6182 298.395 51.0274 294.128 52.4282C293.211 52.728 294.258 53.2413 290.8 53.2416C290.583 53.2416 288.009 53.1512 286.616 53.6709C286.441 53.7364 286.476 53.9274 286.24 53.98C284.652 54.3297 283.553 54.3413 281.82 54.6809C280.091 55.02 278.003 55.4501 275.997 55.689C274.789 55.8332 273.198 55.7094 272.612 55.7089C270.942 55.7048 269.262 56.383 268.211 56.2299C267.152 56.0764 269.059 55.3105 266.377 55.5142C266.354 56.0277 266.207 56.5737 266.125 57.0991C260.267 57.9685 254.542 58.6664 248.669 59.568C247.946 59.6795 248.726 59.837 247.952 59.9633C244.668 60.498 241.798 60.7302 238.383 61.3145C235.759 61.765 232.905 62.4767 230.163 62.9529C228.419 62.6261 224.325 63.424 221.356 63.8022C220.307 63.9363 220.355 63.7735 219.606 63.8314C216.79 64.0517 218.172 64.3667 217.42 64.5566C214.182 65.3705 213.728 64.2699 209.867 64.8516C209.658 64.8829 207.23 65.8508 206.894 65.9371C204.745 66.4949 206.5 65.7768 205.131 65.9253C202.576 66.2033 200.859 66.2972 197.912 66.8916C197.049 67.0662 195.069 67.7295 193.348 67.668C193.122 67.6601 193.216 67.4417 193.037 67.4545C189.79 67.7023 189.837 68.3399 188.017 68.8074C186.19 69.2755 183.361 69.2123 182.74 69.1672C181.178 69.0453 183.893 68.8705 183.957 68.8289C184.859 68.3194 182.807 68.6638 181.22 68.8432C180.906 68.2534 178.725 68.5819 179.59 69.0294C179.687 69.078 180.899 68.8574 181.22 68.8432C179.929 69.6363 177.503 70.0392 174.766 69.8177C173.492 69.7122 174.631 69.2494 170.831 69.8565C169.115 70.1293 169.859 70.469 168.334 70.7822C164.866 71.4952 160.334 71.6517 156.72 72.1451C155.434 72.3212 156.716 72.4068 155.841 72.5347C155.772 72.5447 155.704 72.5545 155.635 72.564C153.313 72.8873 151.312 72.9528 148.992 73.3018C148.778 73.3342 149.329 73.5214 148.595 73.6067C142.985 74.2594 138.117 74.6085 132.212 75.1458C129.394 75.4056 124.326 75.9627 121.364 76.1401C116.231 76.4667 109.935 76.4278 105.544 76.6057C102.695 76.7193 103.314 76.9484 102.093 77.1303C99.7157 77.4895 95.4993 76.814 94.9481 76.6924C94.9442 76.6935 97.3999 76.7004 96.0858 76.539C95.3336 76.2539 94.9787 76.692 94.9481 76.6924C94.5807 76.6428 89.636 76.3212 88.6539 76.2569C88.1206 76.2371 88.3972 76.496 88.121 76.4808C86.0573 76.3628 83.9737 76.1675 81.9234 75.9012C77.3699 75.2975 72.8102 74.428 68.2968 72.776C68.1826 72.7303 68.4433 72.5453 68.1766 72.4414C65.1948 71.1753 62.9955 70.5943 60.6452 68.2263C60.372 67.8923 59.9704 67.4605 59.7545 66.5388C59.5149 65.5879 59.9438 64.4416 60.3784 63.9135C61.4174 62.6483 62.1983 62.364 62.9351 61.9457C63.6914 61.5635 64.3403 61.3088 64.9736 61.0912C66.2263 60.6665 67.3727 60.4305 68.3296 60.364C70.6299 59.5737 74.0529 58.8522 75.9723 58.4801C77.9392 58.0949 78.0517 57.5458 78.2304 57.4892C83.4513 55.85 86.5391 55.4327 92.0315 54.2236C94.6853 53.6404 99.7801 52.432 102.617 51.7566C104.818 51.2296 106.23 51.0458 108.243 50.5334C108.521 50.4632 108.19 50.302 108.274 50.2751C110.539 49.5094 109.544 50.2917 110.047 50.2851C111.71 50.2711 112.722 50.2478 115.271 49.5922C115.454 49.5447 115.645 49.4937 115.846 49.4388C116.498 49.2604 118.297 48.0619 119.555 47.7488C121.175 47.3466 120.594 47.7619 122.258 47.3408C122.402 47.3049 122.332 47.1388 123.377 46.9274C128.226 45.9438 133.49 44.9541 138.52 43.8968C139.201 43.7544 138.27 43.6603 139.255 43.4497C143.945 42.4472 149.001 41.4199 153.554 40.6235C154.682 40.4268 154.019 40.7628 154.274 40.7702C155.862 40.8057 157.822 39.883 158.176 39.8009C166.421 37.8697 172.886 37.0339 181.283 35.1154C181.754 35.0071 185.167 33.7593 186.847 33.9021C186.96 33.9114 188.629 34.0676 189.945 33.467C190.027 33.4295 189.006 33.3814 190.707 33.0656C192.405 32.7502 195.122 32.036 197.511 31.8357C198.267 31.7719 200.108 31.8935 202.244 31.0752C202.386 31.0196 205.622 29.4885 206.956 29.832C207.173 29.8892 207.09 30.5511 209.664 29.7064C210.156 29.5441 209.213 29.5883 210.524 29.2368C212.529 28.6982 215.256 28.3275 217.7 27.5535C218.127 27.4177 219.9 26.6268 221.451 26.6507C221.694 26.6544 221.293 26.9497 222.083 26.8167C225.838 26.1858 229.73 25.2691 233.554 24.6602C234.91 24.4438 234.289 24.9151 235.708 24.7272C237.128 24.5392 239.961 24.0683 241.405 23.6235C242.843 23.1799 241.135 22.9628 243.323 22.4856C252.842 20.4111 262.371 18.8596 271.918 17.0333C273.33 16.7633 272.1 16.806 274.208 16.3887C281.894 14.8651 295.153 12.0881 301.902 11.1974C307.283 10.4881 300.608 12.044 304.737 11.3781C306.756 11.0511 308.719 10.0251 309.191 9.91309C313.062 8.99086 315.986 8.59117 319.179 7.98611C319.874 7.85435 320.575 7.71481 321.292 7.56132C322.153 7.37679 321.258 7.2884 321.988 7.13473C324.428 6.61829 327.129 6.214 329.552 5.72578C330.634 5.50708 330.398 5.35295 331.376 5.17993C333.773 4.75237 335.839 4.43815 338.224 4.16447C338.434 4.14079 337.079 4.65089 338.809 4.32581C341.686 3.78358 345.191 3.28967 348.42 2.46004C349.438 2.20011 349.278 1.7781 351.482 1.64873C351.951 1.61786 351.403 2.28438 353.784 1.31514C353.875 1.27616 354.169 1.16003 354.654 0.991213C354.885 0.909148 355.138 0.81938 355.391 0.729167C355.66 0.635484 356.015 0.521909 356.292 0.427126C356.529 0.342336 356.962 0.210896 357.182 0.131595C357.292 0.0931597 357.493 0.0264125 357.525 0.00873566C357.524 0.0137641 357.634 -0.060513 357.29 0.118007C357.2 0.171326 357.074 0.242644 356.874 0.418986C356.773 0.508914 356.653 0.627252 356.515 0.810676C356.286 1.0776 355.768 2.08513 356.088 3.13959C356.403 4.18112 357.06 4.57872 357.362 4.7565C357.697 4.93684 357.876 4.97376 358.003 5.00768C358.147 5.04028 358.151 5.03725 358.173 5.04154C358.192 5.0447 358.209 5.04712 358.224 5.04907C358.447 5.0695 358.211 5.05222 358.145 5.05357C358.039 5.05148 357.897 5.04991 357.734 5.04831C357.468 5.0418 357.223 5.02482 356.948 4.99539C356.428 4.92739 355.099 4.60611 353.856 4.80369C353.771 4.81796 353.907 4.8673 353.933 4.92943C353.957 4.99179 353.872 5.06647 353.417 5.12535C350.022 5.55821 346.39 5.95109 342.872 6.43332C341.923 6.56411 343.378 6.64594 341.947 6.83479C338.092 7.34579 333.279 7.84838 329.44 8.22148C328.071 8.35315 328.991 8.03731 328.889 8.02667C327.241 7.85312 326.298 8.45998 325.744 8.55412C323.995 8.8519 322.438 9.01203 320.837 9.1677C319.518 9.29423 318.186 9.41479 316.709 9.61681C315.835 9.73564 316.484 9.89612 316.312 9.93737C314.559 10.3488 315.833 9.77485 314.719 9.8585C311.569 10.0951 308.104 10.5195 304.872 10.9278C303.727 11.0731 305.048 11.1928 304.018 11.3203C297.783 12.0969 291.419 12.8145 285.32 13.3768C284.186 13.4806 284.873 13.189 284.632 13.169C282.971 13.0259 280.586 13.7653 280.051 13.8718C277.591 14.3599 276.592 14.2902 274.362 14.5863C263.569 16.0239 250.203 17.4709 239.975 18.603C226.652 20.0789 216.313 21.1064 203.629 22.6779C202.823 22.7775 203.669 22.9571 202.975 23.0465C194.01 24.189 185.161 25.1469 176.181 26.3213C175.444 26.4172 176.539 26.5503 175.358 26.713C172.942 27.0477 169.854 27.4106 167.391 27.6273C166.191 27.7334 167.766 27.3117 166.559 27.423C163.766 27.6797 160.712 28.0365 157.862 28.4312C156.642 28.6006 158.526 28.6404 156.926 28.8412C146.063 30.2113 135.389 31.5953 124.403 32.6524C123.666 32.7228 122.914 32.265 121.322 32.5768C121.22 32.7437 121.25 32.9208 121.218 33.0894C116.02 33.7899 110.645 34.4909 105.472 35.1638C94.9403 36.5353 84.5284 37.8805 74.0067 39.4058C73.3379 39.503 74.5334 39.6214 73.243 39.8106C65.8156 40.9026 58.6025 42.0911 50.9374 43.0688C50.1892 43.165 50.4959 42.5923 48.2712 43.046C47.8986 43.1216 44.5625 43.7638 43.7145 44.028C43.5998 44.0653 44.2536 44.1929 43.1715 44.3907C36.9316 45.5307 30.4194 46.7117 24.2459 47.9577C23.2301 48.164 24.2455 47.6715 23.5277 47.8155C21.0434 48.3149 18.4648 48.9642 15.9312 49.6418C13.3347 50.3355 10.7876 51.0396 8.42747 51.6776C5.31508 52.5582 6.31681 51.758 4.5514 51.9761C4.29058 51.9952 2.49501 52.8224 2.29368 52.6678C1.74965 52.235 2.33345 51.1533 1.65564 50.7411C1.46925 50.6443 -0.89946 52.1745 0.371173 51.0472C0.436018 50.9628 2.30051 49.8579 2.74662 49.5618C3.05294 49.3391 2.33599 49.368 2.99231 48.9724C3.64627 48.5838 4.48587 48.4861 5.58377 47.9724C6.67681 47.4703 6.09187 47.3399 8.35062 46.5994ZM84.7548 56.8616C86.5567 56.6866 86.6182 55.7504 84.7676 56.4088C84.6795 56.4415 84.6631 56.8711 84.7548 56.8616ZM254.452 57.9935C252.051 57.9543 250.497 58.7755 252.218 58.8265C253.938 58.8771 255.184 58.0049 254.452 57.9935ZM278.873 54.0012C276.061 54.1144 275.818 55.4384 278.74 54.7327C278.91 54.6921 279.038 53.9944 278.873 54.0012ZM12.1826 49.3459C12.1535 49.3401 10.7342 49.7371 10.7102 49.7583C10.039 50.2489 12.8683 49.4554 12.1826 49.3459ZM303.084 49.972C302.197 49.9344 299.755 50.5111 300.854 50.5585C301.739 50.5967 304.189 50.0186 303.084 49.972ZM178.105 38.1236C178.135 38.1311 179.173 37.9339 179.138 37.864C179.019 37.6396 177.592 37.9976 178.105 38.1236ZM344.316 43.5874C338.222 44.4823 334.359 44.0165 341.016 43.1062C342.22 42.9414 338.477 43.8383 340.021 43.6952C342.845 43.4328 344.6 42.4934 347.512 42.4004C348.039 42.3843 344.663 43.5387 344.305 43.5905C344.308 43.5895 344.312 43.5884 344.316 43.5874ZM86.0087 57.6722C86.0404 57.6766 87.4901 57.3477 87.5293 57.3269C88.2504 56.8651 85.3221 57.5288 86.0087 57.6722ZM238.756 26.5746C238.834 26.5849 242.185 25.9459 242.288 25.9019C243.94 25.1002 237.178 26.3879 238.756 26.5746ZM132.146 72.6741C133.719 72.2428 135.61 72.0278 136.909 72.2613C135.326 72.3979 133.749 72.5451 132.146 72.6741Z" fill="#8F682E"/>
<path d="M29.2525 3.84322C31.1043 3.86583 33.611 3.99828 35.5326 4.13965C36.1494 4.18353 35.8462 4.33852 36.2465 4.37525C37.0452 4.44673 37.8117 4.37598 38.6179 4.45578C38.8913 4.48302 38.548 4.73237 38.8362 4.75514C40.3472 4.87734 41.8144 4.81897 43.3733 4.87556C51.0401 5.15159 58.5439 5.19894 66.3812 5.25376C68.8874 5.27183 72.0014 5.47357 74.7092 5.34834C75.0089 5.33366 74.8282 5.11423 74.885 5.09548C75.7813 4.80811 75.4868 5.25723 76.0805 5.31092C78.4867 5.52227 81.0984 5.51648 83.4438 5.40669C84.4411 5.35932 83.454 4.93047 84.4337 5.16669C84.5005 5.18265 84.2612 5.41997 84.5228 5.44226C85.1147 5.49237 86.2565 5.43822 86.7304 5.45171C87.6423 5.47891 87.7949 5.47489 88.6722 5.46797C88.8835 5.46665 89.1026 5.46868 89.3276 5.47253C90.3231 5.49128 91.4434 5.55036 92.4878 5.49469C92.7583 5.47958 92.3969 5.24297 92.8288 5.19711C93.2598 5.15135 94.4175 5.15853 94.8136 5.2107C95.1891 5.26315 95.0316 5.45416 95.0984 5.49675C95.6461 5.85648 96.9416 5.33448 97.1114 5.31995C100.227 5.06993 102.817 5.32762 105.756 5.2909C107.976 5.26253 110.265 5.13878 112.403 5.12498C114.89 5.11022 116.972 5.21415 119.438 5.16C119.697 5.15458 119.394 4.87547 119.702 4.86837C122.958 4.79351 126.334 4.78022 129.593 4.92814C129.925 4.94316 129.501 5.19725 129.832 5.22712C131.87 5.40438 135.083 5.85198 136.263 4.75419C137.631 4.77805 139.31 4.79901 140.551 5.00028C141.336 5.12998 140.578 5.41098 141.541 5.28239C141.758 5.2537 141.472 5.02053 141.798 4.99542C143.172 4.88996 144.685 4.94636 146.061 4.80502C146.341 4.77572 146.261 4.56438 146.34 4.52505C147.004 4.20616 148.123 4.70288 148.358 4.73686C150.182 4.98924 151.518 4.86157 153.232 4.84457C153.63 4.84074 153.155 4.56199 153.538 4.54805C155.542 4.47934 157.552 4.47582 159.499 4.57515C159.931 4.59795 159.538 4.84652 159.744 4.86984C160.655 4.96974 160.851 4.50793 161.727 4.59481C161.911 4.61253 161.81 4.82202 161.844 4.84439C162.376 5.19564 162.828 4.68099 162.96 4.66792C164.653 4.49074 165.748 5.00589 167.395 4.90743C167.593 4.89511 167.144 4.63819 167.698 4.61966C171.411 4.49437 175.281 4.51143 178.95 4.66927C179.517 4.69351 179.116 4.89706 179.152 4.92092C179.738 5.29343 180.107 4.77771 180.291 4.75583C181.748 4.5965 183.119 5.00474 184.104 4.38255C190.293 4.50406 196.445 4.07281 202.589 4.52695C202.667 4.53211 202.531 4.78549 202.687 4.7947C204.563 4.9082 204.198 4.52289 205.43 4.02686C205.741 3.90229 206.699 4.46502 206.784 4.50606C207.092 4.65732 206.78 5.03593 206.883 5.06458C207.735 5.28896 207.579 4.05447 208.723 4.03713C208.759 4.03866 208.612 4.26848 208.708 4.28969C209.007 4.35632 209.301 4.2615 209.595 4.33551C210.267 4.50687 210.515 5.10419 211.531 4.73932C211.66 4.69202 211.452 3.99354 212.475 4.01148C212.883 4.01922 214.686 3.98037 215.192 4.0183C215.697 4.05618 215.354 4.28737 215.39 4.29662C216.753 4.57526 216.24 4.70681 216.927 5.13916C217.613 5.56985 217.41 4.52122 217.686 4.39972C217.964 4.27853 218.967 4.5102 219.214 4.59226C219.46 4.67435 219.156 4.82256 219.375 4.86783C220.826 5.16329 220.002 4.33645 220.476 4.16244C221.592 3.75051 222.477 4.51716 223.504 4.57818C223.781 4.59465 223.552 4.42046 223.799 4.40015C224.775 4.32206 225.368 4.55651 226.484 4.31659C226.667 4.27749 227.563 3.7951 228.152 4.13034C228.236 4.1787 228.004 4.37655 228.422 4.41378C229.048 4.46969 230.172 4.49522 230.84 4.42017C231.334 4.36466 230.763 4.05304 231.386 4.14311C231.663 4.18335 231.154 4.37839 231.674 4.43836C232.189 4.49838 233.513 4.47014 234.02 4.456C234.525 4.44175 234.245 4.20306 234.286 4.18609C234.531 4.08863 235.497 3.95687 235.582 3.95587C239.871 3.86124 243.875 4.20975 248.03 4.0107C248.359 3.99538 248.136 3.74262 248.186 3.73765C249.318 3.61301 248.435 4.3076 249.229 4.52341C249.107 4.00545 249.576 4.0924 250.37 4.02323C250.753 3.98947 250.541 3.79143 250.576 3.77029C251.139 3.45594 251.539 3.84468 251.642 3.92389C252.022 4.21522 252.425 3.85794 252.682 4.05261C252.94 4.24579 252.359 4.54697 253.117 4.53159C253.326 4.34229 252.756 3.86475 253.33 3.77712C255.469 3.4462 259.596 3.76418 261.323 3.77713C263.051 3.79003 263.633 3.74668 264.656 3.7981C266.505 3.89107 265.822 3.54084 266.961 3.35804C268.101 3.17523 267.559 4.07136 267.726 4.25961C267.89 4.44781 268.063 4.24878 268.264 4.35051C268.465 4.45223 268.036 4.58865 268.505 4.62074C268.976 4.65275 270.24 4.29376 270.415 4.09148C270.766 3.66329 270.173 3.22882 271.434 3.3651C271.507 3.37323 271.276 3.61024 271.553 3.62952C273.765 3.77479 275.973 3.75149 278.185 3.87583C278.488 3.89331 278.222 4.15715 278.398 4.17026C280.23 4.3077 279.568 3.8802 280.558 3.3783C280.344 4.02894 280.904 4.41619 282.272 4.39855C283.093 4.38818 282.947 4.10777 283.473 3.90027C283.625 3.83781 284.225 4.0225 284.33 3.88789C284.678 3.44783 284.114 2.9702 285.552 3.14131C285.615 3.14952 285.418 3.3905 285.636 3.40149C287.038 3.47373 287.198 3.01662 288.693 2.938C289.841 2.8767 291.986 3.12002 293.329 3.14383C293.313 3.87183 294.578 3.68515 295.079 3.17544C295.943 3.18228 296.863 3.1393 297.732 3.19486C298.026 3.21382 297.836 3.42754 297.874 3.44971C298.448 3.79772 298.821 3.30362 299.01 3.28147C301.066 3.06272 302.66 3.40727 304.656 3.01375C304.725 2.99962 304.831 2.49242 305.359 2.85307C305.393 2.87797 304.752 3.11822 305.67 3.12131C306.606 3.12415 308.242 3.36891 309.572 3.11326C309.885 3.05184 310.667 2.62889 311.297 2.93938C311.38 2.98156 311.292 3.12797 311.413 3.20669C311.805 3.45745 312.008 2.94323 312.467 3.3699C312.789 3.67004 313.351 3.91239 314.084 3.91855C314.412 3.92084 314.771 3.88114 315.157 3.78608C315.199 3.7767 315.502 3.36682 315.909 3.36663C316.56 3.36665 317.472 3.43621 318.132 3.42285C318.448 3.41631 318.242 3.16819 318.296 3.1627C320.418 2.98729 322.055 3.18477 324.302 3.24521C324.743 3.25631 325.982 2.89303 326.803 3.15062C327.702 3.43257 326.811 4.68186 328.841 4.35418C329.703 4.22227 330.761 2.63847 332.247 3.4252C335.177 3.17528 337.912 3.54458 340.776 3.20859C340.913 3.19355 341.334 2.74921 341.648 2.74978C342.115 2.75148 342.37 2.95141 342.696 2.95926C344.016 2.99813 345.358 2.80011 346.64 2.80491C347.136 2.80612 346.936 3.02088 347.565 3.02167C348.182 3.02245 348.585 2.73718 349.386 2.85737C349.97 2.94942 350.629 3.50633 351.447 3.55795C351.472 2.99661 352.017 2.99844 352.999 2.8326C353.197 2.80029 352.981 2.60899 353.074 2.58364C353.453 2.47616 353.802 2.63161 354.148 2.51576C354.232 2.48792 354.232 2.29637 354.3 2.2628C354.866 1.9704 355.86 2.38287 356.034 2.45463C356.687 2.7274 356.972 2.47291 357.445 2.57621C357.959 2.67869 357.197 2.83331 357.795 2.89009C359.007 3.00799 360.516 2.94787 361.723 2.93247C362.214 2.92494 361.874 2.67608 361.944 2.66907C362.911 2.58481 363.964 2.83482 364.477 2.31449C365.238 3.61494 365.041 2.17515 366.511 2.40539C366.619 2.42423 366.775 3.04346 366.356 3.14449C365.916 3.24592 365.283 3.0653 364.671 3.22093C364.501 3.25809 363.752 3.85747 363.63 3.89531C362.738 4.19012 362.626 3.26162 362.576 3.21157C362.07 2.67032 361.039 3.31951 360.811 3.36741C359.609 3.59013 358.637 3.47784 357.597 3.63956C356.952 3.74355 356.915 4.35379 356.402 4.34471C354.627 4.31602 354.116 3.47496 352.482 4.24184C352.147 4.40512 352.509 5.0649 351.267 4.56328C351.203 4.5314 350.208 4.06992 349.728 4.38156C349.664 4.42091 349.67 4.61498 349.585 4.63279C349.013 4.74843 348.621 4.60067 347.97 4.6862C347.294 4.77216 346.575 4.89517 345.842 4.84207C345.404 4.81031 344.822 4.45863 344.604 4.37385C343.964 4.12979 343.389 4.558 343.011 4.25555C342.638 3.95146 343.352 3.46765 342.379 3.28372C342.352 3.78864 342.278 4.30767 342.228 4.81583C340.025 4.83584 337.971 4.70754 335.842 4.76562C335.58 4.77329 335.853 5.03989 335.571 5.05511C334.401 5.11786 333.241 4.94393 332.066 5.0405C331.121 5.11686 330.064 5.42156 329.025 5.51108C328.387 4.94443 326.953 5.16406 325.845 5.12954C325.459 5.11765 325.482 4.96311 325.206 4.91736C324.158 4.74855 324.655 5.25048 324.369 5.33545C323.184 5.69748 323.084 4.54456 321.668 4.59624C321.594 4.59856 320.679 5.22893 320.55 5.26936C319.736 5.53254 320.412 5.05741 319.897 5.02032C318.934 4.95291 318.364 4.81521 317.287 5.01295C316.977 5.07138 316.23 5.46708 315.607 5.18047C315.525 5.14294 315.567 4.93885 315.501 4.928C314.687 4.80536 314.414 5.06589 314.106 5.31556C313.972 5.43078 313.831 5.54368 313.626 5.6154C312.978 5.84229 311.948 5.41767 311.736 5.29393C311.183 4.97386 312.153 5.14661 312.181 5.11387C312.521 4.7242 311.778 4.80234 311.2 4.77917C311.108 4.15395 310.299 4.20459 310.601 4.75769C310.636 4.81807 311.085 4.7524 311.2 4.77917C310.705 5.40204 309.817 5.4951 308.807 4.93671C308.333 4.67502 308.77 4.35399 307.405 4.49078C306.784 4.55259 307.032 4.98015 306.482 5.1066C305.235 5.39502 303.524 5.01986 302.231 5.1039C301.765 5.13437 302.224 5.36326 301.905 5.39223C301.057 5.46985 300.299 5.30469 299.434 5.40927C299.355 5.41904 299.551 5.66319 299.281 5.67063C297.212 5.73228 295.46 5.60172 293.333 5.63102C292.314 5.64514 290.41 5.81161 289.384 5.80037C287.562 5.78307 285.266 5.45965 283.668 5.57208C282.654 5.64392 282.88 5.88769 282.446 6.063C281.609 6.40277 280.094 5.84144 279.889 5.75406C279.883 5.75115 280.768 5.67898 280.293 5.55947C280.014 5.29931 279.898 5.75275 279.889 5.75406C279.756 5.69762 277.974 5.66936 277.617 5.72221C277.424 5.75106 277.536 5.98364 277.435 5.99425C275.084 6.2407 272.734 6.33689 270.299 6.26517C270.257 6.2611 270.317 5.99806 270.216 5.99177C268.833 5.89674 267.959 6.23093 266.816 6.43901C265.675 6.64699 264.76 6.59742 264.07 6.15815C263.192 6.22839 261.961 6.0485 261.25 5.93878C260.538 5.82907 260.446 6.34069 260.384 6.35173C258.437 6.7046 257.287 6.43028 255.247 6.41619C254.29 6.40844 252.381 6.51174 251.334 6.58358C250.507 6.6412 250.005 6.52932 249.24 6.61748C249.137 6.62927 249.245 6.85478 249.213 6.86401C248.362 7.14883 248.765 6.58733 248.587 6.49087C247.935 6.14015 247.552 5.95392 246.469 6.14014C246.219 6.18281 245.502 6.99337 245.046 7.0471C244.452 7.11548 244.672 6.82551 244.05 6.90443C243.997 6.91092 244.011 7.08753 243.626 7.0856C241.836 7.07902 239.88 7.00587 238.035 7.05159C237.782 7.05717 238.111 7.33265 237.745 7.34533C236.032 7.40457 234.137 7.42287 232.461 7.31692C232.05 7.28993 232.305 7.08972 232.215 7.03277C231.663 6.68832 230.894 7.21253 230.765 7.22423C227.713 7.51662 225.34 7.0884 222.232 7.35585C222.063 7.37136 220.763 7.94035 220.171 7.47791C220.13 7.44716 219.545 6.97374 219.038 7.31099C219.007 7.33208 219.371 7.57487 218.742 7.55898C218.112 7.54315 217.101 7.72401 216.236 7.46417C215.962 7.38234 215.309 6.91108 214.5 7.30654C214.447 7.33409 213.202 8.21958 212.743 7.62824C212.669 7.53089 212.736 6.89691 211.767 7.23585C211.582 7.30152 211.922 7.43766 211.433 7.53308C210.684 7.68007 209.684 7.52538 208.767 7.82093C208.607 7.87322 207.929 8.3129 207.375 7.99501C207.288 7.94522 207.448 7.73153 207.158 7.71217C205.777 7.61916 204.334 7.78182 202.93 7.65629C202.433 7.61224 202.682 7.26695 202.163 7.18304C201.644 7.09916 200.6 7.02648 200.061 7.19052C199.522 7.35462 200.122 7.89028 199.311 7.94576C195.788 8.18671 192.288 7.91845 188.767 7.92289C188.245 7.92349 188.68 8.112 187.911 8.12686C185.08 8.1825 180.172 8.43599 177.712 8.05726C175.729 7.75414 178.215 7.46604 176.701 7.35282C175.971 7.29892 175.192 7.94306 175.017 7.9655C173.303 8.19243 172.109 7.92905 170.574 8.03694C170.256 8.0593 170.572 8.31137 170.3 8.3276C169.369 8.38533 168.39 8.28471 167.503 8.31822C167.106 8.33384 167.182 8.52871 166.816 8.51877C165.94 8.49723 165.167 8.42579 164.314 8.25416C164.236 8.23852 164.755 7.98745 164.11 7.98748C163.072 7.98814 161.759 7.82544 160.553 8.02946C160.195 8.09076 160.187 8.53872 159.413 8.24028C159.251 8.17796 159.449 7.63743 158.56 8.11451C158.411 8.19383 156.918 8.84141 156.179 8.44772C155.983 8.34413 155.487 7.91099 155.055 7.98615C154.997 7.998 155.236 8.23523 154.877 8.26368C153.613 8.35978 152.291 8.35243 151.004 8.44558C150.66 8.47092 151.176 8.71272 150.663 8.74254C149.254 8.82494 147.51 8.78556 146.109 8.72683C145.597 8.70465 145.948 8.49365 145.91 8.47172C145.307 8.11501 144.961 8.61238 144.763 8.64381C143.534 8.83262 142.597 8.61396 141.473 8.69048C141.163 8.71097 141.386 8.94283 141.325 8.96461C140.687 9.17792 141.158 8.74968 140.753 8.70868C139.604 8.5926 138.311 8.62896 137.154 8.67455C136.729 8.69165 137.211 8.95753 136.829 8.96972C134.579 9.04693 132.231 9.05223 130.012 8.93147C129.597 8.90821 129.855 8.69505 129.768 8.6483C129.167 8.32112 128.303 8.78966 128.105 8.83583C127.196 9.04663 126.856 8.86562 126.041 8.91094C122.062 9.13554 117.186 9.07551 113.499 9.04605C108.606 9.01002 104.831 8.8569 100.249 8.96328C99.9492 8.96987 100.255 9.24524 99.9966 9.25451C96.6846 9.36107 93.4666 9.2892 90.2146 9.4059C89.9509 9.41494 90.3337 9.67519 89.9111 9.69859C89.7396 9.70845 89.5595 9.71627 89.3744 9.72187C88.5798 9.74506 87.7019 9.73197 86.981 9.67201C86.5429 9.63604 87.1272 9.40279 86.6867 9.37121C85.6493 9.29728 84.6263 9.28929 83.5334 9.34309C83.0763 9.36647 83.7686 9.62977 83.175 9.63907C79.203 9.7071 75.349 9.79125 71.3082 9.47637C71.0349 9.4547 70.8101 8.9069 70.2223 9.01737C70.1782 9.17032 70.1822 9.34977 70.1639 9.51301C64.3913 9.65004 58.6207 9.50095 52.8903 9.49407C52.6478 9.49383 53.0791 9.78347 52.5907 9.78453C49.8412 9.79047 47.1738 9.87697 44.3818 9.58468C44.1019 9.55601 44.2373 9.04393 43.4299 9.12005C43.307 9.13414 42.041 9.19933 41.7279 9.30924C41.6851 9.32586 41.9066 9.56587 41.5135 9.5714C39.1982 9.59888 36.7787 9.52728 34.4754 9.34302C34.087 9.3124 34.5041 9.06476 34.2296 9.0407C32.3366 8.87121 30.2813 9.01758 28.4489 8.67262C27.2134 8.43154 27.7068 8.02312 27.0949 7.53352C27.0013 7.46525 26.2571 7.37167 26.246 7.11441C26.2266 6.47332 26.6645 5.82702 26.6012 5.1386C26.5904 4.99225 25.6 5.02264 26.2214 4.74794C26.2699 4.7314 26.9679 4.69947 27.1396 4.59553C27.2631 4.52545 27.0822 4.24897 27.3284 4.16808C27.568 4.08597 27.7965 4.32343 28.2104 4.22997C28.601 4.13126 28.4502 3.83205 29.2525 3.84322ZM258.032 5.44892C257.364 5.21418 257.28 6.11287 257.995 5.88717C258.029 5.87519 258.066 5.46041 258.032 5.44892ZM337.983 4.03032C337.091 3.64958 336.503 4.2415 337.124 4.53672C337.759 4.83136 338.252 4.14576 337.983 4.03032ZM346.919 3.58787C345.93 3.29305 345.794 4.568 346.847 4.29236C346.908 4.27676 346.976 3.60499 346.919 3.58787ZM30.0906 7.60211C30.0797 7.59007 29.5569 7.55536 29.5339 7.56569C29.2343 7.83758 30.3073 7.90852 30.0906 7.60211ZM355.811 3.11367C355.469 2.94788 354.591 3.16276 354.975 3.36974C355.263 3.53668 356.225 3.32013 355.811 3.11367ZM223.538 5.01571C223.527 5.00249 223.145 4.99619 223.154 5.07165C223.183 5.31466 223.714 5.23798 223.538 5.01571ZM370.903 2.76131C368.674 2.79167 367.281 1.76757 369.728 1.82041C370.165 1.82906 368.794 2.18286 369.342 2.26185C370.362 2.39725 371.107 1.74682 372.009 1.99793C372.278 2.05679 371.049 2.77037 370.9 2.76292C370.901 2.76238 370.902 2.76185 370.903 2.76131ZM257.633 4.37718C257.62 4.36552 257.086 4.36248 257.074 4.37444C256.79 4.66371 257.864 4.67 257.633 4.37718ZM201.174 4.79318C201.144 4.76833 199.912 4.76279 199.873 4.78667C199.237 5.26188 201.727 5.27448 201.174 4.79318ZM293.35 3.1629C293.925 2.86719 294.614 2.82254 295.076 3.17512C294.506 3.16505 293.93 3.17137 293.35 3.1629Z" fill="#8F682E"/>
</svg>
