<svg width="349" height="167" viewBox="0 0 349 167" fill="none" xmlns="http://www.w3.org/2000/svg">
<path d="M188.357 48.1041C183.071 51.0584 176.616 54.7305 170.684 58.1077C168.43 59.3909 166.151 60.6903 164.156 61.8273C161.841 63.1486 162.974 62.3654 161.389 63.2662C158.307 65.0195 155.456 66.7546 152.427 68.4874C151.41 69.0687 152.581 68.1815 151.515 68.796C145.737 72.1277 140.315 75.419 134.513 78.8913C113.008 91.8434 91.8037 104.861 71.674 119.756C65.1291 124.7 58.6975 129.872 53.1192 135.902C48.342 141.05 41.6452 150.141 47.9701 156.346C50.4081 158.957 53.8476 160.463 57.1659 161.401C58.4282 161.745 57.7134 161.392 57.9557 161.446C61.7766 162.168 60.4697 162.148 62.9851 162.612C73.1021 164.218 84.7061 163.378 94.5698 162.205C98.7671 161.677 94.5062 161.908 98.7773 161.532C99.0682 161.505 98.0379 161.798 99.1763 161.665C101.819 161.363 106.713 160.596 108.768 160.266C110.543 159.989 111.651 159.805 112.699 159.628C113.877 159.427 114.983 159.234 116.97 158.872C121.989 157.959 127.949 156.843 133.296 155.652C134.427 155.4 132.892 155.568 134.696 155.149C136.515 154.73 141.33 153.661 142.959 153.319C144.582 152.981 143.924 153.263 144.217 153.225C146.645 152.917 152.115 151.247 152.815 151.061C165.779 147.717 176.911 144.875 188.955 141.289C198.101 138.561 207.803 135.378 216.359 132.391C226.579 128.811 235.145 125.649 244.756 121.399C245.755 120.953 244.496 121.309 245.741 120.75C247.857 119.796 249.97 118.809 252.011 117.813C262.666 112.444 273.586 106.673 280.657 97.2153C281.433 96.0662 280.597 97.6495 281.363 96.5028C283.809 93.0555 285.257 87.113 282.658 82.5381C280.291 77.9915 276.184 75.1898 273.932 74.019C273.259 73.5447 272.579 73.0922 271.827 72.6181C267.374 69.7999 261.912 67.3719 257.685 65.6295C254.538 64.3567 257.701 65.3111 253.719 63.9767C252.818 63.6842 253.935 64.2338 252.58 63.7862C246.885 61.915 240.587 60.1274 234.793 58.8414C233.623 58.5825 233.908 58.7962 233.571 58.7436C230.718 58.2815 226.13 56.9831 225.1 56.7613C217.339 55.0513 211.592 54.2178 204.25 53.2351C202.552 53.0134 204.536 53.4615 202.899 53.257C194.389 52.1987 185.549 51.3841 177.175 50.8297C175.311 50.7075 177.035 50.6399 176.144 50.574C172.216 50.2973 171.331 50.5679 167.564 50.3797C166.769 50.3427 167.221 50.2173 167.076 50.1978C164.81 49.893 162.829 50.2004 162.246 50.1992C160.76 50.1974 159.384 50.188 158.076 50.1747C152.864 50.1289 148.693 49.9823 142.99 50.2519C142.138 50.2947 144.067 50.3865 141.673 50.4983C125.696 51.2599 108.866 53.1623 93.2771 55.9926C90.8531 56.4356 92.5552 55.9747 92.3997 55.9877C89.8865 56.214 88.3279 56.8874 87.5568 57.061C81.3765 58.442 75.5541 59.5848 71.5065 61.0942C62.5678 63.4481 53.7207 66.2781 45.2235 69.7809C30.2119 76.0945 9.75944 86.7612 14.2866 105.385C14.356 105.682 14.1088 105.261 14.1785 105.669C14.1856 105.71 14.1961 105.76 14.211 105.82C16.6781 113.479 16.6982 111.885 19.8201 116.09C20.6268 117.141 23.0843 120.403 23.3498 120.646C24.2219 121.651 23.0645 120.863 23.3683 121.19C25.9636 123.823 26.004 122.86 29.9372 125.792C30.0626 125.884 29.4447 125.628 29.7741 125.882C30.79 126.668 31.8972 127.333 32.9231 128.037C35.3136 129.637 36.0156 130.551 40.0938 132.3C40.6131 132.496 40.0124 131.778 44.0363 133.564C45.6129 134.332 52.9585 136.989 55.0479 137.585C57.1461 138.25 55.6598 137.959 55.807 138.011C61.4208 139.832 59.2187 139.271 62.041 140.31C64.8237 141.291 64.2083 140.412 65.4067 140.609C66.5707 140.808 70.7786 141.837 71.8293 142.077C72.8101 142.313 71.7028 142.197 72.3207 142.349C72.3625 142.36 72.4124 142.371 72.4718 142.384C78.6049 143.669 75.2464 142.51 77.2851 142.735C82.1302 143.223 85.8233 144.198 90.2498 144.706C91.4531 144.84 90.4803 144.625 91.5578 144.719C95.7764 145.077 98.3427 145.444 103.169 145.589C103.972 145.616 107.876 145.512 110.405 145.832C110.761 145.878 109.74 145.971 111.546 146.066C114.264 146.212 119.139 146.346 122.046 146.32C124.202 146.302 121.738 146.076 124.442 146.153C125.64 146.185 123.418 146.307 125.672 146.354C127.924 146.408 133.68 146.329 135.854 146.263C138.039 146.203 136.839 146.071 137.015 146.056C138.094 145.97 142.257 145.75 142.635 145.73C161.274 144.957 178.474 143.549 196.43 140.69C197.839 140.463 196.873 140.441 197.088 140.405C201.896 139.563 198.167 140.625 201.562 140.221C201.018 139.958 203.016 139.699 206.397 139.057C208.026 138.744 207.113 138.772 207.26 138.732C209.64 138.093 211.368 138.027 211.812 137.996C213.451 137.883 215.136 137.307 216.252 137.214C217.365 137.12 214.905 137.827 218.14 137.155C219.02 136.844 216.557 137.029 218.996 136.463C220.816 136.038 222.971 135.546 225.278 135.009C234.648 132.874 246.757 129.63 252.565 127.794C259.807 125.531 262.086 124.679 266.277 123.238C273.799 120.566 270.973 121.343 275.541 119.454C280.121 117.505 278.093 118.947 278.806 118.799C279.505 118.651 280.148 118.246 280.993 117.969C281.827 117.696 280.114 118.507 282.021 117.737C283.924 116.982 288.945 114.513 289.56 114.072C290.839 113.17 288.43 113.982 293.374 111.774C293.658 111.646 292.811 112.222 293.895 111.722C302.488 107.748 311.141 103.048 319.093 97.9099C320.195 97.1943 319.314 97.9894 319.954 97.5741C326.518 93.1828 324.027 94.526 327.269 91.6828C326.741 92.5958 328.911 91.4584 333.398 87.4694C336.062 85.0138 335.454 85.2989 336.998 83.5443C337.346 83.1444 338.624 81.8768 339.18 81.2005C339.329 81.0229 339.437 80.882 339.483 80.7996C340.196 79.3994 338.62 81.2154 342.261 76.3058C342.412 76.0859 342.081 76.8844 342.591 76.1171C345.564 70.9939 345.992 70.0783 346.182 63.8442C346.462 58.6991 340.87 51.0824 336.07 47.8242C336.48 47.4546 331.879 44.4021 329.752 43.6619C326.485 41.7783 322.793 40.0462 319.45 38.5771C318.298 38.0731 319.113 38.2652 318.973 38.1895C316.788 37.0158 315.172 36.7503 314.376 36.4587C310.57 35.0706 307.076 33.8645 303.563 32.7362C299.493 31.433 295.45 30.2596 290.982 29.206C290.69 29.1389 290.156 29.34 288.023 28.5365C287.883 28.4838 290.647 29.0324 286.766 28.0283C282.942 27.0352 275.669 25.1396 270.235 24.144C268.911 23.8961 265.57 23.4705 262.935 22.722C262.583 22.6215 262.993 22.6056 262.488 22.4489C260.88 21.9512 259.914 22.1064 258.013 21.4415C256.124 20.7801 252.119 19.7874 246.582 19.0023C246.407 18.9771 245.07 19.0121 243.342 18.7064C240.575 18.2149 236.675 17.4993 233.798 17.0319C232.419 16.8078 233.275 17.1173 233.035 17.0813C223.738 15.673 217.143 14.5322 207.174 13.0783C205.349 12.8112 200.059 12.3252 196.538 11.6891C192.669 10.9949 196.778 10.6749 187.794 9.75363C184.174 9.38859 179.47 9.87217 173.04 8.60567C160.406 7.32758 148.785 5.89604 136.076 4.99645C135.781 4.97559 135.148 5.00258 134.424 5.01787C133.742 5.03093 132.982 5.03399 132.337 4.97877C130.343 4.80776 129.289 4.58679 127.85 4.46373C121.909 3.95346 116.444 3.67761 110.697 3.28759C108.534 3.14267 109.285 3.0482 106.684 2.88C104.104 2.7159 102.334 2.79668 98.8208 2.51619C96.1597 2.30474 93.5127 1.7897 89.9831 1.58331C89.8227 1.95128 87.4125 1.82739 83.08 1.7545C82.2531 1.74123 83.1338 1.90597 82.7425 1.90642C81.1506 1.91133 79.657 1.74839 78.1497 1.76891C77.7816 1.77366 77.7629 1.90078 77.4574 1.91187C74.8743 2.00931 70.6618 1.59984 69.9409 1.53167C67.1552 1.26665 65.8701 1.40302 63.7229 1.28085C61.5919 1.16076 64.7809 1.13451 62.2932 1.03707C57.1324 0.835155 50.5022 0.769465 45.2589 0.732119C43.1609 0.717759 44.5913 0.89692 44.291 0.898811C39.9712 0.916353 35.5851 0.73493 33.1931 1.0788C30.1886 0.208568 30.5837 1.16453 24.4002 1.02378C23.9133 1.01272 23.29 0.601266 25.161 0.528913C27.0313 0.456794 29.8687 0.573283 32.4619 0.473219C33.0814 0.448643 36.5931 0.0574868 37.079 0.0353106C40.8359 -0.144529 41.3799 0.481735 41.5738 0.515717C43.8242 0.88999 48.1284 0.502772 49.2675 0.486312C54.456 0.403604 58.8499 0.561756 63.1865 0.55849C66.0373 0.559243 66.3022 0.160262 68.5396 0.229511C75.9526 0.472468 78.4975 1.12821 85.4937 0.918405C87.0081 0.879084 85.5105 0.362226 90.8742 0.955792C91.1928 0.99137 95.183 1.50242 97.4677 1.4226C97.7573 1.41237 97.7549 1.28261 98.1365 1.29202C100.715 1.35975 102.373 1.55599 105.17 1.67238C107.939 1.78765 111.277 1.92497 114.46 2.18506C116.345 2.33852 118.807 2.75507 119.706 2.8797C122.255 3.23386 125.065 3.16847 126.633 3.49779C128.231 3.83119 125.044 3.89383 129.278 4.36414C129.459 4.04136 129.843 3.726 130.12 3.40915C131.581 3.52911 133.05 3.65473 134.528 3.78529C142.27 4.46973 149.938 5.25815 157.735 6.03433C158.883 6.14853 157.727 5.84939 158.959 5.96776C164.169 6.47163 168.68 7.08468 174.077 7.64079C178.245 8.07002 182.841 8.41646 187.199 8.90156C189.813 9.60635 196.285 10.2888 200.967 10.9513C202.606 11.1822 202.484 11.2699 203.647 11.4607C208.032 12.1829 206.015 11.5661 207.229 11.6786C212.44 12.1749 212.778 12.9963 218.869 13.8744C219.193 13.92 223.204 14.1094 223.747 14.1688C227.224 14.5354 224.296 14.3967 226.454 14.762C230.386 15.4328 233.109 15.9674 237.749 16.6213C239.104 16.8114 242.373 17.1078 244.953 17.7646C245.292 17.8506 245.079 17.9507 245.353 18.0072C250.336 19.0285 250.531 18.6397 253.422 19.0295C256.31 19.4194 260.665 20.5727 261.537 20.8358C263.824 21.5164 259.732 20.5712 259.594 20.5689C258.054 20.5287 261.266 21.1087 263.716 21.6301C263.996 22.1106 267.414 22.7917 266.253 22.1718C266.123 22.1025 264.209 21.7488 263.716 21.6301C265.955 21.6661 269.737 22.3933 273.793 23.6845C275.706 24.2995 273.81 24.0656 279.721 25.3549C282.396 25.9513 281.401 25.4183 283.8 25.9186C289.211 27.047 296.1 29.1583 301.568 30.7899C303.551 31.3821 301.674 30.6398 303.024 31.0405C303.356 31.1396 303.683 31.2391 304.004 31.339C307.243 32.3497 310.043 33.3916 313.311 34.5387C313.633 34.6523 312.909 34.2068 314.007 34.6136C322.345 37.7966 329.548 40.9631 337.196 46.5972C340.901 49.1546 346.879 55.5483 347.681 60.7234C349.68 68.5991 344.379 77.0065 339.994 81.9045C339.436 82.5505 338.872 83.1763 338.318 83.7765C335.182 87.0679 335.982 86.4124 334.624 87.8564C332.037 90.6058 326.533 94.3459 325.771 94.795C325.769 94.8094 328.8 92.454 327.122 93.6269C326.066 94.2064 325.806 94.7678 325.771 94.795C325.311 95.1526 318.898 99.5388 317.611 100.336C316.912 100.802 317.392 100.681 317.024 100.922C308.335 106.578 299.133 111.401 289.569 115.658C289.399 115.732 289.582 115.457 289.182 115.632C283.62 118.044 280.127 119.713 275.516 121.67C270.893 123.618 267.164 124.915 264.264 125.616C260.734 126.904 255.534 128.471 252.551 129.307C249.553 130.152 249.233 130.591 248.975 130.678C240.849 133.308 236.019 134.4 227.394 136.417C226.884 136.534 226.311 136.666 225.69 136.808C221.329 137.82 214.574 139.257 210.652 140.019C207.12 140.713 204.965 141.012 201.701 141.613C201.259 141.693 201.732 141.768 201.598 141.796C197.969 142.578 199.668 141.921 198.902 141.979C196.127 142.176 194.419 142.321 189.742 143.096C188.663 143.275 185.578 144.23 183.599 144.508C181.029 144.867 181.978 144.56 179.288 144.925C179.058 144.956 179.119 145.07 177.452 145.254C169.715 146.107 161.261 146.783 153.191 147.289C152.086 147.358 153.514 147.459 151.918 147.559C144.44 148.026 136.229 148.299 128.934 148.266C127.135 148.257 128.261 148.118 127.871 148.082C125.468 147.864 122.084 148.185 121.517 148.184C108.149 148.173 97.9182 147.361 84.3575 145.893C83.631 145.826 77.867 145.415 75.4187 144.67C75.2841 144.631 73.7374 144.174 72.0396 143.881C71.552 143.797 71.0516 143.725 70.5633 143.68C70.4264 143.666 71.9382 144.132 69.2453 143.588C66.5341 143.038 62.2 142.185 58.5775 141.004C57.4154 140.628 54.7817 139.575 51.3037 138.681C51.0818 138.654 45.6284 137.322 43.9703 136.155C43.6996 135.953 44.1449 135.765 40.1528 134.174C39.3953 133.86 40.7029 134.594 38.7226 133.703C35.6879 132.326 31.8922 130.074 28.4283 127.815C27.8202 127.433 25.1635 125.82 23.4728 123.975C23.2085 123.687 23.8408 124.082 22.8958 123.185C18.4267 118.915 14.3442 113.466 12.6097 107.191C12.4724 106.697 12.4053 106.368 12.3678 106.128C12.2499 105.275 12.4233 105.547 12.1482 103.721C11.7066 101.382 11.9436 96.5319 12.6786 94.1151C13.3751 91.7056 12.0201 94.1508 13.4719 90.6222C19.9266 78.0818 32.7558 72.5677 44.3142 67.5809C46.7196 66.6009 49.182 65.6637 51.6385 64.779C53.7956 64.0127 51.9491 64.5195 55.1465 63.4089C66.8462 59.1959 87.7188 54.19 98.3872 52.784C106.919 51.5872 96.2574 53.517 102.757 52.5454C105.903 52.0846 109.239 51.1924 109.992 51.0775C117.39 49.9407 122.598 49.5827 129.301 48.9702C130.683 48.848 129.312 48.785 130.491 48.6843C134.528 48.341 138.773 48.1663 142.637 47.9901C144.369 47.9125 144.047 47.7944 145.644 47.7487C149.457 47.6449 152.849 47.6413 156.565 47.7568C156.904 47.7677 154.615 47.9326 157.442 47.9363C157.653 47.937 157.867 47.9381 158.083 47.9396C162.535 47.9679 167.922 48.1924 172.936 48.3002C174.495 48.3358 174.573 48.031 177.911 48.4254C178.611 48.5128 177.69 48.8031 181.61 48.7505C182.265 48.7319 188.851 48.811 192.029 49.4044C192.87 49.5555 195 50.062 196.865 50.2211C197.119 50.2418 196.121 49.9701 197.672 50.1258C203.123 50.681 208.816 51.462 214.386 52.3069C215.874 52.5341 213.689 52.01 215.903 52.3568C221.984 53.3073 229.57 54.8468 235.419 56.3025C237.585 56.8412 236.052 56.6154 236.206 56.6673C238.692 57.5179 240.248 57.5902 241.098 57.7932C246.332 59.066 250.226 60.4004 254.937 61.996C256.221 62.4378 255.366 61.9697 255.626 62.0466C258.371 62.8938 256.273 62.4294 257.943 63.0817C262.629 64.9377 267.785 67.1788 272.273 69.8347C273.747 70.7201 272.451 69.7524 273.306 70.2433C273.392 70.2931 273.497 70.357 273.626 70.4383C277.879 73.1481 282.209 76.5159 284.788 81.4965C287.548 86.5025 286.568 92.9988 283.78 97.2816C282.747 98.9261 283.268 97.8068 283.028 98.1313C281.378 100.354 278.879 103.378 278.207 104.04C275.308 106.964 273.951 107.821 271.074 109.95C265.779 113.776 259.661 117.213 253.244 120.344C242.509 125.564 231.115 129.919 221.514 133.346C201.569 140.373 185.795 144.909 166.351 150.141C165.113 150.47 166.41 150.32 165.342 150.606C151.558 154.266 137.902 157.413 123.872 160.242C122.719 160.473 124.413 160.321 122.569 160.694C119.752 161.262 116.302 161.903 113.181 162.415C112.096 162.594 111.058 162.758 110.094 162.902C108.23 163.18 110.716 162.621 108.811 162.906C104.399 163.562 99.6505 164.231 95.0797 164.789C93.1192 165.025 96.0916 164.87 93.5547 165.157C77.8886 166.158 60.2846 169.961 45.9503 158.238C45.0237 157.23 44.1955 156.06 43.6093 154.738C43.0904 153.439 42.8811 152.127 42.957 149.273C42.8722 149.049 42.7533 149.049 42.6541 148.942C46.5063 133.615 59.4327 126.104 69.9315 117.447C78.9742 110.679 88.3858 104.372 97.8924 98.1722C98.7832 97.5929 97.1368 98.4329 98.8637 97.3098C108.848 90.8288 118.616 84.6727 129.101 78.5065C130.138 77.8976 129.79 78.5067 132.802 76.6194C133.325 76.289 137.892 73.4793 139.043 72.7045C139.198 72.5987 138.282 72.9621 139.753 72.0744C148.331 66.9017 157.428 61.5876 166.119 56.6629C167.521 55.8692 166.11 56.8829 167.126 56.3093C167.768 55.947 168.401 55.588 169.024 55.234C175.607 51.4935 182.452 47.4578 188.798 44.1639C193.456 41.7798 191.896 42.9499 194.495 41.9436C194.848 41.7904 197.823 40.4059 198.05 40.5294C198.598 40.7568 197.363 41.7834 198.12 41.9497C198.251 41.9253 202.182 40.4702 199.898 41.4977C199.732 41.5266 196.991 42.7712 196.351 43.2046C195.9 43.4858 196.827 43.2223 195.895 43.7577C194.968 44.2957 193.826 44.7186 192.28 45.634C190.715 46.5681 191.537 46.3351 188.357 48.1041ZM239.01 132.861C236.192 133.444 235.931 134.13 238.903 133.192C239.046 133.145 239.155 132.83 239.01 132.861ZM148.365 5.5854C152.096 6.20386 154.663 6.07026 152.057 5.60999C149.45 5.15208 147.228 5.39822 148.365 5.5854ZM109.552 2.68803C113.898 3.17703 114.651 2.3778 109.957 2.24414C109.685 2.23649 109.299 2.65987 109.552 2.68803ZM183.212 48.1318C183.26 48.1128 185.284 46.9907 185.331 46.9573C186.318 46.1881 182.255 48.4397 183.212 48.1318ZM70.954 1.12308C72.3232 1.27442 76.2622 1.26671 74.5692 1.07051C73.2146 0.91092 69.2504 0.93237 70.954 1.12308ZM90.3404 145.008C90.2941 144.996 88.6437 144.815 88.6732 144.868C88.7634 145.043 91.0756 145.234 90.3404 145.008ZM5.32831 0.886105C15.0244 0.806068 20.9087 1.45559 10.351 1.48299C8.43913 1.48913 14.4685 1.21577 12.0349 1.17834C7.58074 1.11045 4.63001 1.58591 0.0824161 1.40416C-0.740086 1.37075 4.77473 0.888905 5.34551 0.884929C5.33979 0.885321 5.33404 0.885713 5.32831 0.886105ZM237.227 132.593C237.172 132.601 234.929 133.178 234.883 133.196C233.721 133.695 238.226 132.538 237.227 132.593ZM13.4529 99.3937C13.3042 99.2471 14.2045 94.0606 14.4117 93.9338C14.7318 92.5814 13.8898 94.4062 13.5283 96.434C13.1397 98.4589 13.2883 100.567 13.4529 99.3937ZM336.004 47.7586C333.92 46.4175 331.346 44.8384 329.762 43.6678C331.88 44.8908 334.037 46.2654 336.004 47.7586Z" fill="#8F682E"/>
</svg>
