<svg width="1788" height="307" viewBox="0 0 1788 307" fill="none" xmlns="http://www.w3.org/2000/svg">
<path d="M21 301L21 5.49999L126 5.49999C144.667 5.49999 158.833 9.99999 168.5 19C178.5 27.6666 183.5 39.8333 183.5 55.5L183.5 89C183.5 97.6667 182.167 105.667 179.5 113C177.167 120 173.5 126 168.5 131C164.833 134.667 160.167 137.5 154.5 139.5C148.833 141.5 143.333 142.667 138 143V143.5C143.667 143.5 149.167 144.167 154.5 145.5C159.833 146.833 164.833 149.5 169.5 153.5C175.167 157.833 179.667 163.833 183 171.5C186.333 178.833 188 188 188 199V239.5C188 255.5 185.167 268 179.5 277C174.167 286 166.333 292.333 156 296C146 299.333 134 301 120 301H21ZM79.5 270.5H106.5C111.5 270.5 115.5 269.667 118.5 268C121.833 266 124.333 262.5 126 257.5C128 252.5 129 245.167 129 235.5V200.5C129 187.167 126.667 178.5 122 174.5C117.667 170.167 111.833 168 104.5 168L79.5 168L79.5 270.5ZM79.5 131.5L103 131.5C110.667 131.5 116.667 128.833 121 123.5C125.667 118.167 128 108.833 128 95.5L128 66C128 55.6666 126 48.3333 122 44C118.333 39.3333 113.5 37 107.5 37H79.5L79.5 131.5ZM192.125 301L245.125 5.49999L328.125 5.49999L380.125 301H315.125L306.125 246.5L263.125 246.5L254.625 301H192.125ZM264.125 217.5L305.625 217.5L285.125 57L264.125 217.5ZM389.926 301L389.926 5.49999L497.926 5.49999C517.592 5.49999 532.426 9.99999 542.426 19C552.426 27.6666 557.426 39.8333 557.426 55.5V101.5C557.426 117.167 553.259 130.333 544.926 141C536.592 151.667 523.592 157.833 505.926 159.5C517.259 161.167 525.259 165 529.926 171C534.926 176.667 539.259 186 542.926 199L570.926 301L506.426 301L484.926 203C482.926 195 480.592 188.333 477.926 183C475.592 177.333 472.092 174.5 467.426 174.5H450.426L450.426 301H389.926ZM450.426 134H474.426C483.759 134 490.426 131.5 494.426 126.5C498.426 121.167 500.426 112.833 500.426 101.5V66C500.426 55.3333 498.592 47.8333 494.926 43.5C491.259 39.1667 485.592 37 477.926 37L450.426 37V134ZM584.887 301V5.49999L689.887 5.49999C708.553 5.49999 722.72 9.99999 732.387 19C742.387 27.6666 747.387 39.8333 747.387 55.5V89C747.387 97.6667 746.053 105.667 743.387 113C741.053 120 737.387 126 732.387 131C728.72 134.667 724.053 137.5 718.387 139.5C712.72 141.5 707.22 142.667 701.887 143V143.5C707.553 143.5 713.053 144.167 718.387 145.5C723.72 146.833 728.72 149.5 733.387 153.5C739.053 157.833 743.553 163.833 746.887 171.5C750.22 178.833 751.887 188 751.887 199V239.5C751.887 255.5 749.053 268 743.387 277C738.053 286 730.22 292.333 719.887 296C709.887 299.333 697.887 301 683.887 301H584.887ZM643.387 270.5H670.387C675.387 270.5 679.387 269.667 682.387 268C685.72 266 688.22 262.5 689.887 257.5C691.887 252.5 692.887 245.167 692.887 235.5V200.5C692.887 187.167 690.553 178.5 685.887 174.5C681.553 170.167 675.72 168 668.387 168H643.387V270.5ZM643.387 131.5H666.887C674.553 131.5 680.553 128.833 684.887 123.5C689.553 118.167 691.887 108.833 691.887 95.5V66C691.887 55.6666 689.887 48.3333 685.887 44C682.22 39.3333 677.387 37 671.387 37H643.387V131.5Z" fill="#1D1D1D"/>
<path d="M755 301L755 5.49999L891 5.49999L891 46.5L815.5 46.5L815.5 125.5L879.5 125.5L879.5 171L815.5 171L815.5 261L891 261L891 301L755 301ZM896.992 301L896.992 5.49999L1004.99 5.49999C1024.66 5.49999 1039.49 9.99999 1049.49 19C1059.49 27.6667 1064.49 39.8333 1064.49 55.5L1064.49 101.5C1064.49 117.167 1060.33 130.333 1051.99 141C1043.66 151.667 1030.66 157.833 1012.99 159.5C1024.33 161.167 1032.33 165 1036.99 171C1041.99 176.667 1046.33 186 1049.99 199L1077.99 301L1013.49 301L991.992 203C989.992 195 987.659 188.333 984.992 183C982.659 177.333 979.159 174.5 974.492 174.5L957.492 174.5L957.492 301L896.992 301ZM957.492 134L981.492 134C990.826 134 997.492 131.5 1001.49 126.5C1005.49 121.167 1007.49 112.833 1007.49 101.5L1007.49 66C1007.49 55.3333 1005.66 47.8333 1001.99 43.5C998.326 39.1667 992.659 37 984.992 37L957.492 37L957.492 134ZM1156.95 304.5C1139.29 304.5 1124.12 302 1111.45 297C1099.12 292 1089.62 283.167 1082.95 270.5C1076.29 257.833 1072.95 240 1072.95 217L1072.95 199.5C1083.29 199.5 1093.45 199.5 1103.45 199.5C1113.45 199.5 1123.45 199.5 1133.45 199.5L1133.45 222C1133.45 234.333 1134.45 243.833 1136.45 250.5C1138.45 256.833 1141.29 261.333 1144.95 264C1148.62 266.333 1152.95 267.5 1157.95 267.5C1165.62 267.5 1171.62 264.833 1175.95 259.5C1180.62 253.833 1182.95 243 1182.95 227C1182.95 214.667 1180.95 205.5 1176.95 199.5C1173.29 193.167 1167.29 188.167 1158.95 184.5C1150.62 180.5 1139.95 175.667 1126.95 170C1115.29 165 1105.62 159 1097.95 152C1090.29 145 1084.62 136.167 1080.95 125.5C1077.29 114.833 1075.45 101.833 1075.45 86.5C1075.45 67.1667 1077.95 51.5 1082.95 39.5C1088.29 27.5 1096.95 18.8333 1108.95 13.5C1121.29 7.83332 1137.79 5 1158.45 5C1185.12 5 1205.45 10.8333 1219.45 22.5C1233.79 33.8333 1240.95 51 1240.95 74L1240.95 109.5C1231.29 109.5 1221.62 109.5 1211.95 109.5C1202.62 109.5 1192.95 109.5 1182.95 109.5L1182.95 91.5C1182.95 76.5 1181.12 66 1177.45 60C1174.12 54 1167.95 51 1158.95 51C1150.29 51 1144.12 53.6667 1140.45 59C1136.79 64.3333 1134.95 73 1134.95 85C1134.95 96 1137.12 104.667 1141.45 111C1146.12 117 1151.95 121.667 1158.95 125C1165.95 128 1173.45 131 1181.45 134C1196.12 139.667 1208.12 145.5 1217.45 151.5C1226.79 157.167 1233.62 165.167 1237.95 175.5C1242.29 185.5 1244.45 200 1244.45 219C1244.45 240.333 1240.79 257.333 1233.45 270C1226.45 282.333 1216.29 291.167 1202.95 296.5C1189.95 301.833 1174.62 304.5 1156.95 304.5ZM1252.27 301L1252.27 5.49999L1310.27 5.49999L1310.27 126.5L1358.77 126.5L1358.77 5.49999L1416.77 5.49999L1416.77 301L1358.77 301L1358.77 169.5L1310.27 169.5L1310.27 301L1252.27 301ZM1512.31 307C1495.98 307 1481.64 305 1469.31 301C1456.98 297.333 1447.31 289.5 1440.31 277.5C1433.64 265.167 1430.31 247 1430.31 223L1430.31 68C1430.31 50.3333 1433.64 36.6666 1440.31 27C1447.31 17.3333 1456.98 10.6667 1469.31 7C1481.98 2.99999 1496.48 0.999991 1512.81 0.999991C1528.81 0.999991 1542.98 2.99999 1555.31 7C1567.98 11 1577.81 17.8333 1584.81 27.5C1592.14 37.1667 1595.81 50.6667 1595.81 68L1595.81 222.5C1595.81 246.833 1592.14 265.167 1584.81 277.5C1577.81 289.5 1567.98 297.333 1555.31 301C1542.98 305 1528.64 307 1512.31 307ZM1512.31 273C1517.31 273 1521.64 272.167 1525.31 270.5C1529.31 268.833 1532.31 266 1534.31 262C1536.64 257.667 1537.81 251.833 1537.81 244.5L1537.81 65.5C1537.81 58.1667 1536.64 52.5 1534.31 48.5C1532.31 44.1667 1529.31 41.1667 1525.31 39.5C1521.64 37.8333 1517.31 37 1512.31 37C1507.31 37 1502.98 37.8333 1499.31 39.5C1495.64 41.1667 1492.64 44.1667 1490.31 48.5C1488.31 52.5 1487.31 58.1667 1487.31 65.5L1487.31 244.5C1487.31 251.833 1488.31 257.667 1490.31 262C1492.64 266 1495.64 268.833 1499.31 270.5C1502.98 272.167 1507.31 273 1512.31 273ZM1609.49 301L1609.49 5.49999L1714.49 5.49999C1734.16 5.49999 1748.99 9.99999 1758.99 19C1769.33 27.6667 1774.49 39.8333 1774.49 55.5L1774.49 106.5C1774.49 119.833 1772.83 132.333 1769.49 144C1766.16 155.333 1760.16 164.5 1751.49 171.5C1742.83 178.5 1730.33 182 1713.99 182L1669.99 182L1669.99 301L1609.49 301ZM1669.99 150L1692.49 150C1700.49 150 1706.49 146.167 1710.49 138.5C1714.49 130.833 1716.49 118.167 1716.49 100.5L1716.49 80.5C1716.49 64.8333 1714.83 53.6667 1711.49 47C1708.16 40.3333 1703.33 37 1696.99 37L1669.99 37L1669.99 150Z" fill="#FEFEFE"/>
</svg>
